<?xml version="1.0" encoding="utf-8"?>
<!-- Generator: Adobe Illustrator 18.1.1, SVG Export Plug-In . SVG Version: 6.00 Build 0)  -->
<svg version="1.1" id="Layer_1" xmlns="http://www.w3.org/2000/svg" xmlns:xlink="http://www.w3.org/1999/xlink" x="0px" y="0px"
	 viewBox="1323.6 2822.1 555.4 537.1" enable-background="new 1323.6 2822.1 555.4 537.1" xml:space="preserve">
<g>
	<circle fill="none" stroke="#00E5C6" stroke-width="16" stroke-miterlimit="10" cx="1601.3" cy="3090.6" r="189.6"/>
	<g>
		<g>
			<path fill="#00E5C6" d="M1663,3110.3c0,0,38.9-76-76,1.4c0,0,61.9-75.2,104.6-64.3C1724.4,3055.7,1663,3110.3,1663,3110.3z"/>
			<path fill="#00E5C6" d="M1701.7,3068.3c-34.2,75.3-117.5,95.8-117.5,95.8v37.5C1584.2,3201.5,1680.9,3151.2,1701.7,3068.3z"/>
			<ellipse fill="#00E5C6" cx="1548.2" cy="3193.6" rx="17.5" ry="15.5"/>
		</g>
		<g>
			<g>
				<path fill="#00E5C6" d="M1539.6,3071c0,0-38.9,76,76-1.4c0,0-61.9,75.2-104.6,64.3C1478.2,3125.6,1539.6,3071,1539.6,3071z"/>
			</g>
			<g>
				<path fill="#00E5C6" d="M1500.9,3113c34.2-75.3,117.5-95.8,117.5-95.8v-37.5C1618.4,2979.7,1521.7,3030.1,1500.9,3113z"/>
			</g>
			<g>
				<ellipse fill="#00E5C6" cx="1654.4" cy="2987.6" rx="17.5" ry="15.5"/>
			</g>
		</g>
	</g>
</g>
</svg>
