<?xml version="1.0" encoding="utf-8"?>
<!-- Generator: Adobe Illustrator 18.1.1, SVG Export Plug-In . SVG Version: 6.00 Build 0)  -->
<svg version="1.1" id="Layer_1" xmlns="http://www.w3.org/2000/svg" xmlns:xlink="http://www.w3.org/1999/xlink" x="0px" y="0px"
	 viewBox="2405.5 869.1 402 336.6" enable-background="new 2405.5 869.1 402 336.6" xml:space="preserve">
<g>
	<path fill="#00E5C6" d="M2738.8,1139.1c2-0.1,3.3-0.4,4.5-0.9c1.2-0.5,2.2-1.1,3.3-2.1c1-1,1.7-2.1,2.1-3.3
		c0.5-1.2,0.8-2.5,0.9-4.5c0.1-2,0.1-2.6,0.1-7.6c0-5,0-5.6-0.1-7.6c-0.1-2-0.4-3.3-0.9-4.5c-0.5-1.2-1.1-2.2-2.1-3.3
		s-2.1-1.7-3.3-2.1c-1.2-0.5-2.5-0.8-4.5-0.9c-2-0.1-2.6-0.1-7.6-0.1s-5.6,0-7.6,0.1c-2,0.1-3.3,0.4-4.5,0.9
		c-1.2,0.5-2.2,1.1-3.3,2.1s-1.7,2.1-2.1,3.3c-0.5,1.2-0.8,2.5-0.9,4.5c-0.1,2-0.1,2.6-0.1,7.6c0,5,0,5.6,0.1,7.6
		c0.1,2,0.4,3.3,0.9,4.5c0.5,1.2,1.1,2.2,2.1,3.3c1,1,2.1,1.7,3.3,2.1c1.2,0.5,2.5,0.8,4.5,0.9c2,0.1,2.6,0.1,7.6,0.1
		S2736.8,1139.1,2738.8,1139.1z M2720.3,1135.1c-0.9-0.3-1.5-0.7-2.1-1.4c-0.6-0.6-1-1.3-1.4-2.1c-0.3-0.7-0.6-1.6-0.6-3.4
		c-0.1-1.9-0.1-2.5-0.1-7.5c0-4.9,0-5.5,0.1-7.5c0.1-1.8,0.4-2.8,0.6-3.4c0.3-0.9,0.7-1.5,1.4-2.1c0.6-0.6,1.3-1,2.1-1.4
		c0.6-0.3,1.6-0.6,3.4-0.6c1.9-0.1,2.5-0.1,7.5-0.1s5.5,0,7.5,0.1c1.8,0.1,2.8,0.4,3.4,0.6c0.9,0.3,1.5,0.7,2.1,1.4s1,1.3,1.4,2.1
		c0.3,0.7,0.6,1.6,0.6,3.4c0.1,1.9,0.1,2.5,0.1,7.5c0,4.9,0,5.5-0.1,7.5c-0.1,1.8-0.4,2.8-0.6,3.4c-0.3,0.9-0.7,1.5-1.4,2.1
		s-1.3,1-2.1,1.4c-0.6,0.3-1.6,0.6-3.4,0.6c-1.9,0.1-2.5,0.1-7.5,0.1s-5.5,0-7.5-0.1C2721.9,1135.6,2720.9,1135.3,2720.3,1135.1z"/>
	<path fill="#00E5C6" d="M2740.6,1120.7c0-5.2-4.2-9.5-9.5-9.5s-9.5,4.2-9.5,9.5c0,5.2,4.2,9.5,9.5,9.5S2740.6,1125.9,2740.6,1120.7
		z M2725,1120.7c0-3.4,2.8-6.1,6.1-6.1c3.4,0,6.1,2.8,6.1,6.1c0,3.4-2.8,6.1-6.1,6.1C2727.8,1126.9,2725,1124.1,2725,1120.7z"/>
	<circle fill="#00E5C6" cx="2741" cy="1110.9" r="2.2"/>
	<path fill="#00E5C6" d="M2731.1,1162.1c-5.6,0-11.1-1.2-16.3-3.4c-14.8-6.5-24.4-21.1-24.4-37.3c0-5.1,1-10.1,2.8-14.9
		c6.2-15.7,21-25.8,37.8-25.8c22.4,0,40.7,18.2,40.7,40.7C2771.8,1143.9,2753.6,1162.1,2731.1,1162.1z M2731.1,1084.6
		c-20.3,0-36.8,16.5-36.8,36.8c0,20.3,16.5,36.8,36.8,36.8c14.7,0,28-8.8,33.8-22.3c2-4.6,3-9.5,3-14.5c0-15.1-9-28.5-23.1-34.1
		C2740.5,1085.5,2735.9,1084.6,2731.1,1084.6z"/>
	<path fill="#00E5C6" d="M2731.1,1081.1c-17,0-31.6,10.6-37.5,25.6c-1.8,4.6-2.8,9.5-2.8,14.7c0,16.5,10,30.7,24.2,36.9
		c4.9,2.2,10.4,3.4,16.2,3.4c22.2,0,40.3-18.1,40.3-40.3S2753.4,1081.1,2731.1,1081.1z M2694,1121.4c0-20.5,16.7-37.2,37.2-37.2
		c4.9,0,9.6,1,13.9,2.7c13.6,5.5,23.3,18.9,23.3,34.5c0,5.2-1.1,10.1-3,14.6c-5.7,13.3-18.9,22.6-34.2,22.6
		C2710.6,1158.6,2694,1141.9,2694,1121.4z"/>
	<path fill="#00E5C6" d="M2487.6,1106.2c0,4.8,0,5.8,0,5.8h-4.5v7.4h4.5v21.7h8.7v-21.8h6.1l0.6-7.3h-6.7c0,0,0-2.7,0-4.2
		c0-1.7,0.3-2.4,2-2.4c1.3,0,4.7,0,4.7,0v-7.6c0,0-5,0-6,0C2490.5,1097.9,2487.6,1100.7,2487.6,1106.2z"/>
	<path fill="#00E5C6" d="M2493,1163.5c-23.8,0-43.2-19.4-43.2-43.2s19.4-43.2,43.2-43.2s43.2,19.4,43.2,43.2
		S2516.8,1163.5,2493,1163.5z M2493,1081.1c-21.6,0-39.2,17.6-39.2,39.2c0,21.6,17.6,39.2,39.2,39.2s39.2-17.6,39.2-39.2
		C2532.2,1098.7,2514.6,1081.1,2493,1081.1z"/>
	<path fill="#00E5C6" d="M2493,1077.4c-23.6,0-42.9,19.2-42.9,42.9c0,23.6,19.2,42.9,42.9,42.9s42.9-19.2,42.9-42.9
		C2535.9,1096.6,2516.6,1077.4,2493,1077.4z M2453.5,1120.3c0-21.8,17.7-39.5,39.5-39.5s39.5,17.7,39.5,39.5s-17.7,39.5-39.5,39.5
		S2453.5,1142.1,2453.5,1120.3z"/>
	<path fill="#00E5C6" d="M2631.6,1105.8c-1.4,0.8-3,1.5-4.7,1.8c-1.3-1.4-3.3-2.3-5.4-2.3c-4.7,0-8.2,4.4-7.2,9
		c-6.1-0.3-11.5-3.2-15.2-7.7c-1.9,3.3-1,7.6,2.3,9.8c-1.2,0-2.3-0.4-3.3-0.9c-0.1,3.4,2.4,6.6,5.9,7.3c-1,0.3-2.2,0.3-3.3,0.1
		c0.9,2.9,3.7,5,6.9,5.1c-3.1,2.4-7,3.5-10.9,3c3.3,2.1,7.1,3.3,11.3,3.3c13.7,0,21.4-11.5,20.9-21.9c1.4-1,2.7-2.3,3.7-3.8
		c-1.3,0.6-2.7,1-4.2,1.2C2629.9,1109,2631.1,1107.6,2631.6,1105.8z"/>
	<path fill="#00E5C6" d="M2612.3,1160.6c-22.4,0-40.7-18.3-40.7-40.7c0-21.6,16.9-39.5,38.5-40.6c0,0,0,0,0,0c0.2,0,0.3,0.1,0.4,0.3
		c0.1,0.8,0.8,1.4,1.6,1.4c0.1,0,0.2,0,0.4,0c0,0,0.1,0,0.1,0c0,0,0.1,0,0.1,0c0.1,0,0.3,0,0.4,0c0.8,0,1.5-0.6,1.6-1.4
		c0-0.2,0.2-0.3,0.4-0.3c0,0,0,0,0,0c21.3,1.4,38,19.2,38,40.6C2653,1142.3,2634.7,1160.6,2612.3,1160.6z M2612.3,1083
		c-20.3,0-36.8,16.5-36.8,36.8s16.5,36.8,36.8,36.8s36.8-16.5,36.8-36.8S2632.6,1083,2612.3,1083z"/>
	<path fill="#00E5C6" d="M2615,1079.6c-0.2,0.9-1,1.6-2,1.6c-0.2,0-0.3,0-0.5-0.1c-0.1,0-0.3,0.1-0.5,0.1c-1,0-1.8-0.7-2-1.7
		c-21.2,1.1-38.2,18.8-38.2,40.3c0,22.2,18.1,40.3,40.3,40.3s40.3-18.1,40.3-40.3C2652.6,1098.5,2636,1081,2615,1079.6z
		 M2612.3,1157.1c-20.5,0-37.2-16.7-37.2-37.2s16.7-37.2,37.2-37.2s37.2,16.7,37.2,37.2S2632.8,1157.1,2612.3,1157.1z"/>
	<path fill="#00E5C6" d="M2590,913.6c2.3-0.6,4.6-1.2,6.9-1.8c16.2-4.2,32.5-8.3,48.7-12.5c0.8-0.2,1.6-0.3,2.4-0.4
		c2.8-0.1,5,1.5,5.2,4.3c0.2,3.1,0.1,6.2,0.1,9.4v1.2l1.9,0l4,0c0-3,0-5.8,0-8.7c0-8.6-6.4-13.6-14.8-11.5c-19.5,5-38.9,10-58.4,15
		c-7,1.8-13.9,3.6-20.9,5.3l17.6,0l6.6,0L2590,913.6z"/>
	<path fill="#00E5C6" d="M2566.6,989.1c13.4-9.1,8.9-0.2,8.9-0.2s7.2-6.4,3.4-7.4C2573.9,980.3,2566.6,989.1,2566.6,989.1z"/>
	<path fill="#00E5C6" d="M2566.3,995.2v4.4c0,0,11.3-5.9,13.8-15.6C2576,992.8,2566.3,995.2,2566.3,995.2z"/>
	<ellipse fill="#00E5C6" cx="2562.1" cy="998.7" rx="2.1" ry="1.8"/>
	<path fill="#00E5C6" d="M2557.7,991.7c5,1.3,12.2-7.5,12.2-7.5c-13.4,9.1-8.9,0.2-8.9,0.2S2553.9,990.7,2557.7,991.7z"/>
	<path fill="#00E5C6" d="M2570.3,978v-4.4c0,0-11.3,5.9-13.8,15.6C2560.5,980.4,2570.3,978,2570.3,978z"/>
	<ellipse fill="#00E5C6" cx="2574.5" cy="974.5" rx="2.1" ry="1.8"/>
	<path fill="#00E5C6" d="M2589.2,1002.1c0.7-0.9,1.3-1.2,2.4-1.2c22.1,0,44.2,0,66.3,0c6.4,0,11.6-5,11.6-11.3c0-21.3,0-42.7,0-64
		c0-2.6-0.8-4.9-2.4-6.9c-2.3-2.9-5.3-4.3-9.2-4.5h-2.9h-3l-0.1,0c-21.1,0-42.1,0-63.1,0c0-0.1,0-0.1,0-0.2h-6.3h-17.5
		c-0.6,0.2-1.3,0.3-1.9,0.5c-5.5,1.3-9.2,5.8-9.2,11.5c0,12.5,0,25.1,0,37.6c0,0.9-0.3,1.4-1,2c-8,6.3-11.7,14.5-10.2,24.6
		c1.7,11.1,8.3,18.4,19.2,21.4C2572.1,1014.4,2582.8,1010.5,2589.2,1002.1z M2566.3,919.9c30.5,0,60.9,0,91.4,0
		c3.6,0,6.1,2.2,6.2,5.8c0.1,5.5,0,11,0,16.5c0,0.2-0.1,0.4-0.1,0.8c-0.6,0-1.2,0-1.7,0c-6,0-12,0-18,0c-7.3,0.1-13,4.6-14.5,11.6
		c-1.8,8.7,4.8,17.2,13.7,17.3c6.3,0.1,12.6,0,19,0c0.5,0,1,0,1.6,0c0,0.6,0.1,1,0.1,1.4c0,5.1,0,10.1,0,15.2c0,4.4-2.2,6.6-6.7,6.6
		c-20.9,0-41.8,0-62.7,0c-0.4,0-0.8,0-1.4,0c2.9-10.2,1.3-19.4-6.2-27c-7.5-7.6-16.7-9.3-27-6.4c0-0.5-0.1-0.9-0.1-1.4
		c0-11.3,0-22.6,0-33.8C2559.8,922.2,2562.1,919.9,2566.3,919.9z M2663.8,949c0,5.8,0,11.4,0,17.2c-0.7,0-1.3,0-2,0c-6,0-12,0-18,0
		c-3.9,0-7.1-2.3-8.3-5.8c-1.2-3.4-0.2-7.1,2.5-9.5c1.5-1.3,3.2-2.1,5.2-2.1c6.7,0,13.4,0,20.2,0
		C2663.4,948.9,2663.5,948.9,2663.8,949z M2568.5,966.2c11.2,0,20.2,9.1,20.2,20.3c0,11.2-9.1,20.2-20.3,20.2
		c-11.2,0-20.2-9-20.2-20.3C2548.3,975.1,2557.3,966.2,2568.5,966.2z"/>
	<path fill="#00E5C6" d="M2614.1,1073.3v6c0,0.9-0.7,1.7-1.5,1.9c0.1,0,0.3,0.1,0.5,0.1c1,0,1.8-0.7,2-1.6c0-0.1,0-0.2,0-0.4v-6
		c0-1.1-0.9-2-2-2c-0.2,0-0.3,0-0.5,0.1C2613.4,1071.6,2614.1,1072.4,2614.1,1073.3z"/>
	<path fill="#00E5C6" d="M2613,1057.5c-0.2,0-0.3,0-0.5,0.1c0.9,0.2,1.5,1,1.5,1.9v6.9c0,0.9-0.7,1.7-1.5,1.9c0.1,0,0.3,0.1,0.5,0.1
		c1.1,0,2-0.9,2-2v-6.9C2615,1058.4,2614.1,1057.5,2613,1057.5z"/>
	<path fill="#00E5C6" d="M2615,1048.6h4c1.1,0,2-0.9,2-2s-0.9-2-2-2h-4.9v2v6c0,0.9-0.7,1.7-1.5,1.9c0.1,0,0.3,0.1,0.5,0.1
		c1.1,0,2-0.9,2-2V1048.6z"/>
	<path fill="#00E5C6" d="M2711.7,1063.4c0.4,0.4,0.9,0.6,1.4,0.6s1-0.2,1.4-0.6c0.8-0.8,0.8-2,0-2.8l-8.9-8.9c-0.8-0.8-2-0.8-2.8,0
		s-0.8,2,0,2.8L2711.7,1063.4z"/>
	<path fill="#00E5C6" d="M2669.3,1044.6h-12.6c-1.1,0-2,0.9-2,2s0.9,2,2,2h12.6c1.1,0,2-0.9,2-2S2670.4,1044.6,2669.3,1044.6z"/>
	<path fill="#00E5C6" d="M2696.4,1046.6c0-1.1-0.9-2-2-2h-12.6c-1.1,0-2,0.9-2,2s0.9,2,2,2h12.6
		C2695.5,1048.6,2696.4,1047.7,2696.4,1046.6z"/>
	<path fill="#00E5C6" d="M2631.6,1044.6c-1.1,0-2,0.9-2,2s0.9,2,2,2h12.6c1.1,0,2-0.9,2-2s-0.9-2-2-2H2631.6z"/>
	<path fill="#00E5C6" d="M2724.9,1076.6c0.4,0.4,0.9,0.6,1.4,0.6s1-0.2,1.4-0.6c0.8-0.8,0.8-2,0-2.8l-4.2-4.2c-0.8-0.8-2-0.8-2.8,0
		s-0.8,2,0,2.8L2724.9,1076.6z"/>
	<path fill="#00E5C6" d="M2612.1,1081.3c0.2,0,0.3,0,0.5-0.1c0.9-0.2,1.5-1,1.5-1.9v-6c0-0.9-0.7-1.7-1.5-1.9
		c-0.1,0-0.3-0.1-0.5-0.1c-1.1,0-2,0.9-2,2v6c0,0.1,0,0.2,0,0.3C2610.3,1080.6,2611.1,1081.3,2612.1,1081.3z"/>
	<path fill="#00E5C6" d="M2614.1,1066.4v-6.9c0-0.9-0.7-1.7-1.5-1.9c-0.1,0-0.3-0.1-0.5-0.1c-1.1,0-2,0.9-2,2v6.9c0,1.1,0.9,2,2,2
		c0.2,0,0.3,0,0.5-0.1C2613.4,1068.1,2614.1,1067.4,2614.1,1066.4z"/>
	<path fill="#00E5C6" d="M2614.1,1052.6v-6c0,1.1-0.9,2-2,2s-2-0.9-2-2v-2h-4c-1.1,0-2,0.9-2,2s0.9,2,2,2h4v4c0,1.1,0.9,2,2,2
		c0.2,0,0.3,0,0.5-0.1C2613.4,1054.4,2614.1,1053.6,2614.1,1052.6z"/>
	<path fill="#00E5C6" d="M2512,1064c0.5,0,1-0.2,1.4-0.6l8.9-8.9c0.8-0.8,0.8-2,0-2.8s-2-0.8-2.8,0l-8.9,8.9c-0.8,0.8-0.8,2,0,2.8
		C2510.9,1063.8,2511.4,1064,2512,1064z"/>
	<path fill="#00E5C6" d="M2568.4,1044.6h-12.6c-1.1,0-2,0.9-2,2s0.9,2,2,2h12.6c1.1,0,2-0.9,2-2S2569.5,1044.6,2568.4,1044.6z"/>
	<path fill="#00E5C6" d="M2581,1044.6c-1.1,0-2,0.9-2,2s0.9,2,2,2h12.6c1.1,0,2-0.9,2-2s-0.9-2-2-2H2581z"/>
	<path fill="#00E5C6" d="M2543.3,1044.6h-12.6c-1.1,0-2,0.9-2,2s0.9,2,2,2h12.6c1.1,0,2-0.9,2-2S2544.4,1044.6,2543.3,1044.6z"/>
	<path fill="#00E5C6" d="M2498.8,1077.1c0.5,0,1-0.2,1.4-0.6l4.2-4.2c0.8-0.8,0.8-2,0-2.8s-2-0.8-2.8,0l-4.2,4.2
		c-0.8,0.8-0.8,2,0,2.8C2497.8,1076.9,2498.3,1077.1,2498.8,1077.1z"/>
	<path fill="#00E5C6" d="M2612.1,1048.6c1.1,0,2-0.9,2-2v-2v-4c0-1.1-0.9-2-2-2s-2,0.9-2,2v4v2
		C2610.1,1047.7,2611,1048.6,2612.1,1048.6z"/>
	<path fill="#00E5C6" d="M2610.1,1031.4c0,1.1,0.9,2,2,2s2-0.9,2-2v-9.2c0-1.1-0.9-2-2-2s-2,0.9-2,2V1031.4z"/>
	<path fill="#00E5C6" d="M2612.1,1015c1.1,0,2-0.9,2-2v-6c0-1.1-0.9-2-2-2s-2,0.9-2,2v6C2610.1,1014.1,2611,1015,2612.1,1015z"/>
</g>
</svg>
