<?xml version="1.0" encoding="utf-8"?>
<!-- Generator: Adobe Illustrator 21.1.0, SVG Export Plug-In . SVG Version: 6.00 Build 0)  -->
<svg version="1.1" id="Layer_1" xmlns="http://www.w3.org/2000/svg" xmlns:xlink="http://www.w3.org/1999/xlink" x="0px" y="0px"
	 viewBox="0 0 2022.7 1745.5" style="enable-background:new 0 0 2022.7 1745.5;" xml:space="preserve">
<style type="text/css">
	.st0{fill:#FFFFFF;}
	.st1{fill:#386BB4;}
	.st2{fill:#002F48;}
	.st3{fill:#F06B51;}
	.st4{fill:#7E7E7E;}
</style>
<path class="st0" d="M1257,582.2c0,0,154.5-302.4-302.5,5.8c0,0,246.4-299,416.2-255.9C1501,365.2,1257,582.2,1257,582.2z"/>
<path class="st0" d="M1410.8,414.9c-136.4,299.5-467.4,381.3-467.4,381.3v149.3C943.4,945.5,1328,744.9,1410.8,414.9z"/>
<ellipse class="st0" cx="800.1" cy="913.9" rx="69.6" ry="61.7"/>
<path class="st1" d="M765.7,425.8c0,0-154.5,302.4,302.5-5.8c0,0-246.4,299-416.2,255.9C521.7,642.8,765.7,425.8,765.7,425.8z"/>
<path class="st1" d="M611.9,593.1c136.4-299.5,467.4-381.3,467.4-381.3V62.5C1079.3,62.5,694.8,263,611.9,593.1z"/>
<ellipse class="st1" cx="1222.6" cy="94.1" rx="69.6" ry="61.7"/>
<path class="st0" d="M187.3,1191.6c-4.1-2.9-7.8-5.3-11-7.8c-19.6-12.7-40.5-19.2-62.5-19.2c-34.7,0-53.5,14.7-53.5,42.5
	c0,13.1,4.9,24.1,13.1,31.9c10.6,9.4,18.8,13.9,50.7,27.4c33.9,14.3,44.5,19.6,58,30.6c18,14.7,27.8,37.2,27.8,63.3
	c0,50.3-37.6,81.3-98.5,81.3c-29.8,0-57.6-7.8-84.6-23.3l-4.1-37.2c29.8,20.4,59.3,30.2,88.7,30.2c38.8,0,64.2-20.4,64.2-51.9
	c0-15.1-6.5-28.6-18-37.6c-9.4-6.9-15.5-10.2-48.6-25.3c-37.2-17.2-46.2-22.1-58-31.5c-15.9-13.1-24.9-33.5-24.9-56.8
	c0-45.8,33.5-74,88.3-74c25.7,0,44.1,4.9,73.1,19.6V1191.6z"/>
<path class="st0" d="M323.4,1244.4c54.4,0,98.5,43.7,98.5,98.1c0,54.4-44.1,98.1-98.5,98.1c-54.8,0-98.5-43.7-98.5-98.1
	C224.9,1288.1,268.6,1244.4,323.4,1244.4z M323.4,1414.3c37.2,0,67.4-31.9,67.4-71.9c0-40-30.2-71.9-67.4-71.9
	c-37.6,0-67.4,31.9-67.4,71.9C256,1382.5,285.8,1414.3,323.4,1414.3z"/>
<path class="st0" d="M594.7,1290.1c-22.9-13.5-41.7-19.6-60.9-19.6c-42.5,0-71.1,30.2-71.1,74.4c0,42.1,26.6,69.5,67,69.5
	c10.6,0,21.2-1.6,31.9-5.3c13.9-4.5,21.7-8.6,39.2-21.2l-4.1,34.7c-6.1,3.3-10.6,5.3-13.9,6.5c-16.8,7.4-37.2,11.4-55.2,11.4
	c-58.8,0-96-37.2-96-96c0-58.8,41.3-100.1,100.1-100.1c22.9,0,43.7,5.7,66.6,18L594.7,1290.1z"/>
<path class="st0" d="M645.8,1157.9c15.1,0,27.6,12.5,27.6,27.6c0,15.1-12.5,27.6-27.6,27.6c-15.1,0-27.6-12.5-27.6-27.6
	C618.2,1170.4,630.7,1157.9,645.8,1157.9z"/>
<polygon class="st0" points="630.3,1255.4 661.3,1248 661.3,1431.9 630.3,1431.9 "/>
<path class="st0" d="M869.3,1391.1c0,11.4,1.2,24.9,3.7,38.8l-28.2,10.6l-4.5-21.2c-22.5,15.1-40.5,21.2-63.7,21.2
	c-53.9,0-90.7-38.4-90.7-93.6c0-60.1,38.8-98.9,99.3-98.9c17.2,0,28.6,2,49.9,9l5.7,1.6l28.6-2.5V1391.1z M838.3,1286.4
	c-16.8-9.8-32.7-13.9-51.1-13.9c-43.3,0-70.3,28.6-70.3,74c0,41.7,24.9,69.5,62.9,69.5c8.6,0,17.2-1.2,25.3-3.7
	c12.3-4.1,18.8-7.4,33.1-18.4V1286.4z"/>
<path class="st0" d="M907.4,1146.7l31.1-7.4v292.6h-31.1V1146.7z"/>
<path class="st1" d="M1214.2,1445h-4.5l-69.5-181.4l-67.8,181.4h-4.5l-112-300.8h53.1l62.9,176.5l68.2-186.3h4.9l68.2,187.6
	l63.3-177.8h47.8L1214.2,1445z"/>
<path class="st1" d="M1471.3,1431.1c-7.8,2.4-12.7,4.1-27,9.4l-5.7-13.9c-8.2,5.3-11.4,6.9-18.8,9.4c-9,2.9-18.4,4.5-27.8,4.5
	c-53.1,0-92.4-39.6-92.4-93.2c0-56.8,43.3-99.3,101.3-99.3c17.6,0,27.4,2.4,41.7,11.4l38.4-1.6V1362c0,14.3,0.4,24.1,1.2,34.3
	c1.2,9.8,2,15.9,4.5,29.8C1479.5,1428.2,1476.6,1429.1,1471.3,1431.1z M1433.7,1293c-10.2-6.5-19.2-9-30.2-9
	c-33.5,0-57.6,26.2-57.6,62.5c0,33.5,22.5,56.8,54.4,56.8c13.5,0,22.1-3.3,33.5-11.9V1293z"/>
<path class="st1" d="M1525.7,1431.9v-285.2l47.4-7.4v292.6H1525.7z"/>
<path class="st1" d="M1618.8,1431.9v-285.2l47.4-7.4v292.6H1618.8z"/>
<path class="st1" d="M1873.4,1349.4l-135.7,4.1c3.3,33.1,24.5,49.4,65,49.4c13.1,0,23.7-2,34.3-6.5c11.9-4.9,18-9.4,31.1-22.1
	l-3.7,47.8c-13.9,7.8-20,10.2-32.3,13.5c-11.9,3.3-23.7,4.9-36.4,4.9c-61.7,0-103-36.8-103-91.1c0-58,44.5-101.3,103.8-101.3
	c48.2,0,78,30.6,78,80.5C1874.6,1335.1,1874.2,1342,1873.4,1349.4z M1831.3,1301.2c-4.5-11-18.4-18.4-35.5-18.4
	c-29.4,0-53.1,19.2-58,46.6l96.4-2.9C1833.8,1311.4,1833.4,1307.7,1831.3,1301.2z"/>
<path class="st1" d="M1953.9,1290.1v78c0,42.5,1.6,46.2,24.5,60.1v3.7l-46.6,3.7c-18.8-9-25.3-22.1-25.3-51.5v-94H1882v-36.8h26.2
	v-56.8l47.4-5.7v62.5h44.5v36.8H1953.9z"/>
<path class="st0" d="M1060.1,1711.4H937.7V1684h119.9c14.4,0,26.5-11.8,26.5-25.9c0-14.4-11.6-24.8-25.9-25.1h-79.3
	c-27.9,0-52.2-19.5-52.2-52.2c0-28.2,22.3-50.2,50.2-50.2h120.7v26.5H979.1c-13.3,0-22.8,11-22.8,24.2c0,13.3,9.9,22.6,23.1,22.6
	l79,0.3c29.1,0,54.4,20.6,54.4,54.2C1112.8,1687.4,1089.1,1711.4,1060.1,1711.4z"/>
<path class="st0" d="M1309.7,1710.8v-79.3h-137.4v79.3h-29.9v-180.5h29.9v72.5h137.4v-72.5h30.2v180.5H1309.7z"/>
<path class="st0" d="M1540,1711.1l-15.5-31.9h-113.9l-15.8,31.9h-31l86.9-180.8h33.8l86.6,180.8H1540z M1467.3,1561.1l-43.7,91.7
	h87.7L1467.3,1561.1z"/>
<path class="st0" d="M1754.7,1710.8l-29.9-58.9h-103.2v58.9h-29.9v-180.5h145c20.6,0,46.8,6.8,46.8,44v31.9
	c0,16.1-7.3,34.4-27.9,41.7l33.3,62.9H1754.7z M1750.1,1571.8c0-12.7-5.1-15.8-15-15.8h-113.7v67.1c0,0,97.3,0,113.9,0
	c9.9,0,14.7-5.1,14.7-16.1V1571.8z"/>
<path class="st0" d="M1853.1,1710.8c-27.4,0-38.4-16.9-38.4-40.1v-100.4c0-22.8,11.3-40,38.4-40h129.5c0,7.9,0,25.9,0,25.9h-125.2
	c-8.5,0-12.1,5.9-12.1,14.4v32.7h126.9v29h-126.9v38.9c0,9.6,4.5,13.5,15.2,13.5h122.1v25.9H1853.1z"/>
<g>
	<path class="st0" d="M83.4,1642.4H49.4v16.7h-9.1V1604h44.6c6.2,0,13.9,1.8,13.9,13.4v10.8C98.7,1639.9,91,1642.4,83.4,1642.4z
		 M89,1616.7c0-3.9-0.8-4.7-3.8-4.7H49.4v22.6h35.3c3,0,4.4-0.9,4.4-4.7V1616.7z"/>
	<path class="st0" d="M185.1,1655.3c-2.3,2.5-6.1,3.8-10.8,3.8h-34.2c-4.6,0-8.3-1.2-10.7-3.8c-2.3-2.4-3.3-6.5-3.3-12.4v-22.6
		c0-5.7,0.8-10,3.1-12.6c2.3-2.5,6.1-3.7,10.8-3.7h34.2c4.6,0,8.3,1.1,10.6,3.7c2.3,2.4,3.4,6.7,3.4,12.6v22.6
		C188.2,1648.6,187.4,1652.7,185.1,1655.3z M179,1615.5c0-2.3-1.4-3.5-4.2-3.5h-35.4c-2.8,0-4.1,1.1-4.1,3.5v32.2
		c0,2.3,1.4,3.5,4.1,3.5h35.4c2.8,0,4.2-1.1,4.2-3.5V1615.5z"/>
	<path class="st0" d="M276.9,1659.2l-5.3-0.1l-5.3,0.1l-11.1-26.6l-11.1,26.6l-5.3-0.1l-5.2,0.1l-23.1-55.2h9.8l18.5,43.1l11.4-26.5
		l-7-16.6h9.8l18.5,43.1l18.5-43.1h9.8L276.9,1659.2z"/>
	<path class="st0" d="M334.1,1659.1c-8.3,0-11.7-5.2-11.7-12.2v-30.6c0-7,3.4-12.2,11.7-12.2h39.5c0,2.4,0,7.9,0,7.9h-38.2
		c-2.6,0-3.7,1.8-3.7,4.4v10h38.7v8.9h-38.7v11.9c0,2.9,1.4,4.1,4.6,4.1h37.3v7.9H334.1z"/>
	<path class="st0" d="M450.2,1659.1l-9.1-18h-31.5v18h-9.1V1604h44.2c6.3,0,14.3,2.1,14.3,13.4v9.7c0,4.9-2.2,10.5-8.5,12.7
		l10.2,19.2H450.2z M448.9,1616.7c0-3.9-1.5-4.8-4.6-4.8h-34.7v20.5c0,0,29.7,0,34.8,0c3,0,4.5-1.5,4.5-4.9V1616.7z"/>
	<path class="st0" d="M497.5,1659.1c-8.3,0-11.7-5.2-11.7-12.2v-30.6c0-7,3.4-12.2,11.7-12.2H537c0,2.4,0,7.9,0,7.9h-38.2
		c-2.6,0-3.7,1.8-3.7,4.4v10h38.7v8.9h-38.7v11.9c0,2.9,1.4,4.1,4.6,4.1H537v7.9H497.5z"/>
	<path class="st0" d="M613.4,1659.1h-49.7V1604h49.7c8,0,11.7,5.1,11.7,12.2v30.6C625.1,1654.5,621.5,1659.1,613.4,1659.1z
		 M616,1616.1c0-2.3-1.5-4.1-3.8-4.1h-39.5v39.2h38.6c3.3,0,4.6-1.2,4.6-4.1V1616.1z"/>
	<path class="st0" d="M759.9,1659.1h-47.7V1604h46.3c8.9,0,12.2,4.2,12.2,12.3v5c0,3.2-1.7,6.8-3.5,7.7c2.2,1.3,4.4,3.4,4.4,8v9.9
		C771.6,1654.3,768.3,1659.1,759.9,1659.1z M758.3,1612h-36.8v14.2h36.7c2.1,0,3.4-1.1,3.4-3.4c0,0,0-2.9,0-7.5
		C761.6,1612.9,760.5,1612,758.3,1612z M762.4,1639.2c0-2.6-1.2-4.3-4.5-4.3h-36.5v16.3h36.3c3.3,0,4.6-1.2,4.6-4.1
		C762.4,1643,762.4,1639.2,762.4,1639.2z"/>
	<path class="st0" d="M830.3,1644.7v14.5h-9.8v-14.6l-25.2-40.4h10.8l19.7,31.6l18.8-31.6h10.8L830.3,1644.7z"/>
</g>
<g>
	<rect x="37.6" y="1537.3" class="st0" width="816.7" height="1.5"/>
</g>
<g>
	<rect x="37.6" y="1711.6" class="st0" width="816.7" height="1.5"/>
</g>
</svg>
