<?xml version="1.0" encoding="utf-8"?>
<!-- Generator: Adobe Illustrator 21.1.0, SVG Export Plug-In . SVG Version: 6.00 Build 0)  -->
<svg version="1.1" id="Layer_1" xmlns="http://www.w3.org/2000/svg" xmlns:xlink="http://www.w3.org/1999/xlink" x="0px" y="0px"
	 viewBox="0 0 694.1 481.6" style="enable-background:new 0 0 694.1 481.6;" xml:space="preserve">
<style type="text/css">
	.st0{fill:#002F48;}
	.st1{fill:#F06B51;}
	.st2{fill:#FFFFFF;}
	.st3{fill:#7E7E7E;}
</style>
<g>
	<g>
		<g>
			<g>
				<path class="st2" d="M94.5,379.6c-1.3-0.9-2.4-1.6-3.4-2.4c-6-3.9-12.4-5.9-19.2-5.9c-10.6,0-16.4,4.5-16.4,13
					c0,4,1.5,7.4,4,9.8c3.3,2.9,5.8,4.3,15.5,8.4c10.4,4.4,13.7,6,17.8,9.4c5.5,4.5,8.5,11.4,8.5,19.4c0,15.4-11.5,24.9-30.2,24.9
					c-9.1,0-17.7-2.4-25.9-7.1L44,437.7c9.1,6.3,18.2,9.3,27.2,9.3c11.9,0,19.7-6.3,19.7-15.9c0-4.6-2-8.8-5.5-11.5
					c-2.9-2.1-4.8-3.1-14.9-7.8c-11.4-5.3-14.2-6.8-17.8-9.6c-4.9-4-7.6-10.3-7.6-17.4c0-14,10.3-22.7,27.1-22.7
					c7.9,0,13.5,1.5,22.4,6L94.5,379.6L94.5,379.6z"/>
				<path class="st2" d="M136.2,395.8c16.7,0,30.2,13.4,30.2,30.1S152.9,456,136.2,456c-16.8,0-30.2-13.4-30.2-30.1
					S119.4,395.8,136.2,395.8z M136.2,447.9c11.4,0,20.7-9.8,20.7-22c0-12.3-9.3-22-20.7-22c-11.5,0-20.7,9.8-20.7,22
					S124.7,447.9,136.2,447.9z"/>
				<path class="st2" d="M219.4,409.8c-7-4.1-12.8-6-18.7-6c-13,0-21.8,9.3-21.8,22.8c0,12.9,8.1,21.3,20.5,21.3
					c3.3,0,6.5-0.5,9.8-1.6c4.3-1.4,6.6-2.6,12-6.5l-1.3,10.6c-1.9,1-3.3,1.6-4.3,2c-5.1,2.3-11.4,3.5-16.9,3.5
					c-18,0-29.4-11.4-29.4-29.4s12.6-30.7,30.7-30.7c7,0,13.4,1.8,20.4,5.5L219.4,409.8z"/>
				<path class="st2" d="M235,369.3c4.6,0,8.5,3.8,8.5,8.5c0,4.6-3.8,8.5-8.5,8.5c-4.6,0-8.5-3.8-8.5-8.5
					C226.5,373.1,230.4,369.3,235,369.3z"/>
				<polygon class="st2" points="230.2,399.2 239.8,396.9 239.8,453.3 230.2,453.3 				"/>
				<path class="st2" d="M303.5,440.7c0,3.5,0.4,7.6,1.1,11.9l-8.6,3.3l-1.4-6.5c-6.9,4.6-12.4,6.5-19.5,6.5
					c-16.5,0-27.8-11.8-27.8-28.7c0-18.4,11.9-30.3,30.4-30.3c5.3,0,8.8,0.6,15.3,2.8l1.8,0.5l8.8-0.8L303.5,440.7L303.5,440.7z
					 M294,408.7c-5.1-3-10-4.3-15.7-4.3c-13.3,0-21.5,8.8-21.5,22.7c0,12.8,7.6,21.3,19.3,21.3c2.6,0,5.3-0.4,7.8-1.1
					c3.8-1.3,5.8-2.3,10.1-5.6L294,408.7L294,408.7z"/>
				<path class="st2" d="M315.2,365.8l9.5-2.3v89.7h-9.5V365.8z"/>
				<path class="st2" d="M409.2,457.3h-1.4l-21.3-55.6l-20.8,55.6h-1.4L330,365.1h16.3l19.3,54.1l20.9-57.1h1.5l20.9,57.5l19.4-54.5
					H443L409.2,457.3z"/>
				<path class="st2" d="M488,453c-2.4,0.8-3.9,1.3-8.3,2.9l-1.8-4.3c-2.5,1.6-3.5,2.1-5.8,2.9c-2.8,0.9-5.6,1.4-8.5,1.4
					c-16.3,0-28.3-12.1-28.3-28.6c0-17.4,13.3-30.4,31.1-30.4c5.4,0,8.4,0.8,12.8,3.5l11.8-0.5v31.9c0,4.4,0.1,7.4,0.4,10.5
					c0.4,3,0.6,4.9,1.4,9.1C490.5,452.1,489.6,452.4,488,453z M476.5,410.7c-3.1-2-5.9-2.8-9.3-2.8c-10.3,0-17.7,8-17.7,19.2
					c0,10.3,6.9,17.4,16.7,17.4c4.1,0,6.8-1,10.3-3.6V410.7z"/>
				<path class="st2" d="M504.7,453.3v-87.4l14.5-2.3v89.7H504.7z"/>
				<path class="st2" d="M533.2,453.3v-87.4l14.5-2.3v89.7H533.2z"/>
				<path class="st2" d="M611.2,428l-41.6,1.3c1,10.1,7.5,15.2,19.9,15.2c4,0,7.3-0.6,10.5-2c3.6-1.5,5.5-2.9,9.5-6.8l-1.1,14.7
					c-4.3,2.4-6.1,3.1-9.9,4.1c-3.6,1-7.3,1.5-11.1,1.5c-18.9,0-31.6-11.3-31.6-27.9c0-17.8,13.7-31.1,31.8-31.1
					c14.8,0,23.9,9.4,23.9,24.7C611.6,423.6,611.5,425.7,611.2,428z M598.3,413.2c-1.4-3.4-5.6-5.6-10.9-5.6
					c-9,0-16.3,5.9-17.8,14.3l29.6-0.9C599.1,416.3,599,415.2,598.3,413.2z"/>
				<path class="st2" d="M635.9,409.8v23.9c0,13,0.5,14.2,7.5,18.4v1.1l-14.3,1.1c-5.8-2.8-7.8-6.8-7.8-15.8v-28.8h-7.5v-11.3h8V381
					l14.5-1.8v19.2H650v11.3L635.9,409.8L635.9,409.8z"/>
			</g>
		</g>
	</g>
	<g>
		<g>
			<g>
				<g>
					<path class="st2" d="M422.3,192.9c0,0,47.4-92.7-92.7,1.8c0,0,75.5-91.6,127.6-78.4C497.1,126.3,422.3,192.9,422.3,192.9z"/>
					<path class="st2" d="M469.5,141.6c-41.8,91.8-143.3,116.9-143.3,116.9v45.8C326.2,304.2,444.1,242.7,469.5,141.6z"/>
					<ellipse class="st2" cx="282.3" cy="294.5" rx="21.3" ry="18.9"/>
				</g>
			</g>
			<g>
				<g>
					<path class="st2" d="M271.8,144.9c0,0-47.4,92.7,92.7-1.8c0,0-75.5,91.6-127.6,78.4C197,211.4,271.8,144.9,271.8,144.9z"/>
					<path class="st2" d="M224.6,196.2c41.8-91.8,143.3-116.9,143.3-116.9V33.6C367.9,33.6,250,95,224.6,196.2z"/>
					<ellipse class="st2" cx="411.8" cy="43.3" rx="21.3" ry="18.9"/>
				</g>
			</g>
		</g>
	</g>
	<g>
		<g>
			<g>
				<path class="st2" d="M94.5,379.6c-1.3-0.9-2.4-1.6-3.4-2.4c-6-3.9-12.4-5.9-19.2-5.9c-10.6,0-16.4,4.5-16.4,13
					c0,4,1.5,7.4,4,9.8c3.3,2.9,5.8,4.3,15.5,8.4c10.4,4.4,13.7,6,17.8,9.4c5.5,4.5,8.5,11.4,8.5,19.4c0,15.4-11.5,24.9-30.2,24.9
					c-9.1,0-17.7-2.4-25.9-7.1L44,437.7c9.1,6.3,18.2,9.3,27.2,9.3c11.9,0,19.7-6.3,19.7-15.9c0-4.6-2-8.8-5.5-11.5
					c-2.9-2.1-4.8-3.1-14.9-7.8c-11.4-5.3-14.2-6.8-17.8-9.6c-4.9-4-7.6-10.3-7.6-17.4c0-14,10.3-22.7,27.1-22.7
					c7.9,0,13.5,1.5,22.4,6L94.5,379.6L94.5,379.6z"/>
				<path class="st2" d="M136.2,395.8c16.7,0,30.2,13.4,30.2,30.1S152.9,456,136.2,456c-16.8,0-30.2-13.4-30.2-30.1
					S119.4,395.8,136.2,395.8z M136.2,447.9c11.4,0,20.7-9.8,20.7-22c0-12.3-9.3-22-20.7-22c-11.5,0-20.7,9.8-20.7,22
					S124.7,447.9,136.2,447.9z"/>
				<path class="st2" d="M219.4,409.8c-7-4.1-12.8-6-18.7-6c-13,0-21.8,9.3-21.8,22.8c0,12.9,8.1,21.3,20.5,21.3
					c3.3,0,6.5-0.5,9.8-1.6c4.3-1.4,6.6-2.6,12-6.5l-1.3,10.6c-1.9,1-3.3,1.6-4.3,2c-5.1,2.3-11.4,3.5-16.9,3.5
					c-18,0-29.4-11.4-29.4-29.4s12.6-30.7,30.7-30.7c7,0,13.4,1.8,20.4,5.5L219.4,409.8z"/>
				<path class="st2" d="M235,369.3c4.6,0,8.5,3.8,8.5,8.5c0,4.6-3.8,8.5-8.5,8.5c-4.6,0-8.5-3.8-8.5-8.5
					C226.5,373.1,230.4,369.3,235,369.3z"/>
				<polygon class="st2" points="230.2,399.2 239.8,396.9 239.8,453.3 230.2,453.3 				"/>
				<path class="st2" d="M303.5,440.7c0,3.5,0.4,7.6,1.1,11.9l-8.6,3.3l-1.4-6.5c-6.9,4.6-12.4,6.5-19.5,6.5
					c-16.5,0-27.8-11.8-27.8-28.7c0-18.4,11.9-30.3,30.4-30.3c5.3,0,8.8,0.6,15.3,2.8l1.8,0.5l8.8-0.8L303.5,440.7L303.5,440.7z
					 M294,408.7c-5.1-3-10-4.3-15.7-4.3c-13.3,0-21.5,8.8-21.5,22.7c0,12.8,7.6,21.3,19.3,21.3c2.6,0,5.3-0.4,7.8-1.1
					c3.8-1.3,5.8-2.3,10.1-5.6L294,408.7L294,408.7z"/>
				<path class="st2" d="M315.2,365.8l9.5-2.3v89.7h-9.5V365.8z"/>
				<path class="st2" d="M409.2,457.3h-1.4l-21.3-55.6l-20.8,55.6h-1.4L330,365.1h16.3l19.3,54.1l20.9-57.1h1.5l20.9,57.5l19.4-54.5
					H443L409.2,457.3z"/>
				<path class="st2" d="M488,453c-2.4,0.8-3.9,1.3-8.3,2.9l-1.8-4.3c-2.5,1.6-3.5,2.1-5.8,2.9c-2.8,0.9-5.6,1.4-8.5,1.4
					c-16.3,0-28.3-12.1-28.3-28.6c0-17.4,13.3-30.4,31.1-30.4c5.4,0,8.4,0.8,12.8,3.5l11.8-0.5v31.9c0,4.4,0.1,7.4,0.4,10.5
					c0.4,3,0.6,4.9,1.4,9.1C490.5,452.1,489.6,452.4,488,453z M476.5,410.7c-3.1-2-5.9-2.8-9.3-2.8c-10.3,0-17.7,8-17.7,19.2
					c0,10.3,6.9,17.4,16.7,17.4c4.1,0,6.8-1,10.3-3.6V410.7z"/>
				<path class="st2" d="M504.7,453.3v-87.4l14.5-2.3v89.7H504.7z"/>
				<path class="st2" d="M533.2,453.3v-87.4l14.5-2.3v89.7H533.2z"/>
				<path class="st2" d="M611.2,428l-41.6,1.3c1,10.1,7.5,15.2,19.9,15.2c4,0,7.3-0.6,10.5-2c3.6-1.5,5.5-2.9,9.5-6.8l-1.1,14.7
					c-4.3,2.4-6.1,3.1-9.9,4.1c-3.6,1-7.3,1.5-11.1,1.5c-18.9,0-31.6-11.3-31.6-27.9c0-17.8,13.7-31.1,31.8-31.1
					c14.8,0,23.9,9.4,23.9,24.7C611.6,423.6,611.5,425.7,611.2,428z M598.3,413.2c-1.4-3.4-5.6-5.6-10.9-5.6
					c-9,0-16.3,5.9-17.8,14.3l29.6-0.9C599.1,416.3,599,415.2,598.3,413.2z"/>
				<path class="st2" d="M635.9,409.8v23.9c0,13,0.5,14.2,7.5,18.4v1.1l-14.3,1.1c-5.8-2.8-7.8-6.8-7.8-15.8v-28.8h-7.5v-11.3h8V381
					l14.5-1.8v19.2H650v11.3L635.9,409.8L635.9,409.8z"/>
			</g>
		</g>
	</g>
	<g>
		<g>
			<g>
				<g>
					<path class="st2" d="M422.3,192.9c0,0,47.4-92.7-92.7,1.8c0,0,75.5-91.6,127.6-78.4C497.1,126.3,422.3,192.9,422.3,192.9z"/>
					<path class="st2" d="M469.5,141.6c-41.8,91.8-143.3,116.9-143.3,116.9v45.8C326.2,304.2,444.1,242.7,469.5,141.6z"/>
					<ellipse class="st2" cx="282.3" cy="294.5" rx="21.3" ry="18.9"/>
				</g>
			</g>
			<g>
				<g>
					<path class="st2" d="M271.8,144.9c0,0-47.4,92.7,92.7-1.8c0,0-75.5,91.6-127.6,78.4C197,211.4,271.8,144.9,271.8,144.9z"/>
					<path class="st2" d="M224.6,196.2c41.8-91.8,143.3-116.9,143.3-116.9V33.6C367.9,33.6,250,95,224.6,196.2z"/>
					<ellipse class="st2" cx="411.8" cy="43.3" rx="21.3" ry="18.9"/>
				</g>
			</g>
		</g>
	</g>
</g>
</svg>
