<?xml version="1.0" encoding="utf-8"?>
<!-- Generator: Adobe Illustrator 21.1.0, SVG Export Plug-In . SVG Version: 6.00 Build 0)  -->
<svg version="1.1" id="Layer_1" xmlns="http://www.w3.org/2000/svg" xmlns:xlink="http://www.w3.org/1999/xlink" x="0px" y="0px"
	 viewBox="0 0 681.8 203.8" style="enable-background:new 0 0 681.8 203.8;" xml:space="preserve">
<style type="text/css">
	.st0{fill:none;}
	.st1{fill:#FFFFFF;}
	.st2{font-family:'OpenSans-Regular';}
	.st3{font-size:8px;}
	.st4{fill:#00E5C6;}
	.st5{font-size:12px;}
	.st6{fill:#00CBAF;}
	.st7{fill:#009A84;}
	.st8{fill:#02529E;}
	.st9{fill:#0A6CCD;}
	.st10{fill:#3877BC;}
	.st11{fill:#4893E7;}
	.st12{fill:#5BE9D4;}
</style>
<g>
	<rect x="43.1" y="16.4" class="st0" width="113.5" height="22"/>
	<text transform="matrix(1 0 0 1 52.521 22.4715)" class="st1 st2 st3">Platform Completed With </text>
	<text transform="matrix(1 0 0 1 47.521 32.0716)" class="st1 st2 st3">Twitter, Facebook and Email</text>
</g>
<g>
	<rect x="122.7" y="172" class="st0" width="113.5" height="60.5"/>
	<text transform="matrix(1 0 0 1 135.4493 178.0697)" class="st1 st2 st3">Pre sale and Token Sale</text>
</g>
<g>
	<rect x="203.7" y="16.4" class="st0" width="113.5" height="14.2"/>
	<text transform="matrix(1 0 0 1 229.704 22.3969)" class="st1 st2 st3">Platform Launch</text>
</g>
<g>
	<rect x="363.2" y="17.5" class="st0" width="113.5" height="30.3"/>
	<text transform="matrix(1 0 0 1 400.0346 23.5197)" class="st1 st2 st3">Debit Card</text>
	<text transform="matrix(1 0 0 1 396.5346 33.1197)" class="st1 st2 st3">Android App</text>
	<text transform="matrix(1 0 0 1 405.1346 42.7198)" class="st1 st2 st3">iOS App</text>
</g>
<g>
	<rect x="443.7" y="172" class="st0" width="113.5" height="60.5"/>
	<text transform="matrix(1 0 0 1 485.9507 178.0697)" class="st1 st2 st3">WeChat</text>
	<text transform="matrix(1 0 0 1 488.6507 187.6698)" class="st1 st2 st3">Steem</text>
</g>
<g>
	<rect x="522.4" y="16.5" class="st0" width="113.5" height="30.3"/>
	<text transform="matrix(1 0 0 1 563.2639 22.5188)" class="st1 st2 st3">LinkedIn</text>
	<text transform="matrix(1 0 0 1 563.6639 32.1189)" class="st1 st2 st3">Google+</text>
	<text transform="matrix(1 0 0 1 535.5639 41.7188)" class="st1 st2 st3">Ecommerce Integration</text>
</g>
<g>
	<rect x="283.5" y="172" class="st0" width="113.5" height="60.5"/>
	<text transform="matrix(1 0 0 1 304.867 178.0697)" class="st1 st2 st3">Public tipping page</text>
	<text transform="matrix(1 0 0 1 321.367 187.6698)" class="st1 st2 st3">Instagram</text>
</g>
<rect x="74.5" y="125.4" class="st0" width="50.7" height="25"/>
<text transform="matrix(1 0 0 1 91.7341 134.5249)" class="st4 st2 st5">Q4</text>
<text transform="matrix(1 0 0 1 86.1341 148.925)" class="st4 st2 st5">2017</text>
<rect x="154.2" y="65.1" class="st0" width="50.7" height="25"/>
<text transform="matrix(1 0 0 1 171.4104 74.2129)" class="st6 st2 st5">Q1</text>
<text transform="matrix(1 0 0 1 165.8104 88.6129)" class="st6 st2 st5">2018</text>
<rect x="235.1" y="125.4" class="st0" width="50.7" height="25"/>
<text transform="matrix(1 0 0 1 252.3061 134.5249)" class="st7 st2 st5">Q2</text>
<text transform="matrix(1 0 0 1 246.7061 148.925)" class="st7 st2 st5">2018</text>
<rect x="315.1" y="65.1" class="st0" width="50.7" height="25"/>
<text transform="matrix(1 0 0 1 332.3818 74.2129)" class="st8 st2 st5">Q3</text>
<text transform="matrix(1 0 0 1 326.7818 88.6129)" class="st8 st2 st5">2018</text>
<rect x="394.9" y="125.4" class="st0" width="50.7" height="25"/>
<text transform="matrix(1 0 0 1 412.1109 134.5249)" class="st9 st2 st5">Q4</text>
<text transform="matrix(1 0 0 1 406.5109 148.925)" class="st9 st2 st5">2018</text>
<rect x="475.2" y="65.1" class="st0" width="50.7" height="25"/>
<text transform="matrix(1 0 0 1 492.4099 74.2129)" class="st10 st2 st5">Q1</text>
<text transform="matrix(1 0 0 1 486.8099 88.6129)" class="st10 st2 st5">2019</text>
<rect x="553.8" y="125.4" class="st0" width="50.7" height="25"/>
<text transform="matrix(1 0 0 1 571.0688 134.5249)" class="st11 st2 st5">Q2</text>
<text transform="matrix(1 0 0 1 565.4688 148.925)" class="st11 st2 st5">2019</text>
<g>
	<path class="st12" d="M89.5,102H22.1l3.8,3.7l-3.8,3.7h67.4c-0.4-1.2-0.7-2.4-0.7-3.7S89.1,103.1,89.5,102z"/>
	<path class="st4" d="M169.2,102h-59c0.4,1.2,0.7,2.4,0.7,3.7s-0.2,2.6-0.7,3.7h59c-0.4-1.2-0.7-2.4-0.7-3.7S168.7,103.1,169.2,102z
		"/>
	<path class="st6" d="M250.1,102h-60.2c0.4,1.2,0.7,2.4,0.7,3.7s-0.2,2.6-0.7,3.7h60.2c-0.4-1.2-0.7-2.4-0.7-3.7
		S249.6,103.1,250.1,102z"/>
	<path class="st7" d="M330.1,102h-59.4c0.4,1.2,0.7,2.4,0.7,3.7s-0.2,2.6-0.7,3.7h59.4c-0.4-1.2-0.7-2.4-0.7-3.7
		S329.7,103.1,330.1,102z"/>
	<path class="st8" d="M409.9,102h-59.1c0.4,1.2,0.7,2.4,0.7,3.7s-0.2,2.6-0.7,3.7h59.1c-0.4-1.2-0.7-2.4-0.7-3.7
		S409.4,103.1,409.9,102z"/>
	<path class="st9" d="M490.2,102h-59.6c0.4,1.2,0.7,2.4,0.7,3.7s-0.2,2.6-0.7,3.7h59.6c-0.4-1.2-0.7-2.4-0.7-3.7
		S489.7,103.1,490.2,102z"/>
	<path class="st10" d="M568.8,102h-58c0.4,1.2,0.7,2.4,0.7,3.7s-0.2,2.6-0.7,3.7h58c-0.4-1.2-0.7-2.4-0.7-3.7S568.4,103.1,568.8,102
		z"/>
	<path class="st4" d="M101.3,94.8V51.6c0-0.8-0.7-1.5-1.5-1.5s-1.5,0.7-1.5,1.5v43.2c0.5-0.1,1-0.1,1.5-0.1S100.8,94.8,101.3,94.8z"
		/>
	<path class="st7" d="M261.9,94.8V51.6c0-0.8-0.7-1.5-1.5-1.5s-1.5,0.7-1.5,1.5v43.2c0.5-0.1,1-0.1,1.5-0.1S261.4,94.8,261.9,94.8z"
		/>
	<path class="st8" d="M421.7,94.8V51.6c0-0.8-0.7-1.5-1.5-1.5s-1.5,0.7-1.5,1.5v43.2c0.5-0.1,1-0.1,1.5-0.1S421.2,94.8,421.7,94.8z"
		/>
	<path class="st11" d="M580.7,94.8V51.6c0-0.8-0.7-1.5-1.5-1.5s-1.5,0.7-1.5,1.5v43.2c0.5-0.1,1-0.1,1.5-0.1S580.2,94.8,580.7,94.8z
		"/>
	<path class="st6" d="M178,116.6v43.9c0,0.8,0.7,1.5,1.5,1.5s1.5-0.7,1.5-1.5v-43.9c-0.5,0.1-1,0.1-1.5,0.1S178.5,116.7,178,116.6z"
		/>
	<path class="st8" d="M339,116.6v43.9c0,0.8,0.7,1.5,1.5,1.5s1.5-0.7,1.5-1.5v-43.9c-0.5,0.1-1,0.1-1.5,0.1S339.5,116.7,339,116.6z"
		/>
	<path class="st10" d="M499,116.6v43.9c0,0.8,0.7,1.5,1.5,1.5s1.5-0.7,1.5-1.5v-43.9c-0.5,0.1-1,0.1-1.5,0.1S499.5,116.7,499,116.6z
		"/>
	<path class="st4" d="M110.2,102c-1.4-3.8-4.7-6.6-8.8-7.1c-0.5-0.1-1-0.1-1.5-0.1s-1,0-1.5,0.1c-4.1,0.6-7.5,3.4-8.8,7.1
		c-0.4,1.2-0.7,2.4-0.7,3.7s0.2,2.6,0.7,3.7c1.5,4.2,5.6,7.3,10.3,7.3s8.8-3,10.3-7.3c0.4-1.2,0.7-2.4,0.7-3.7
		S110.6,103.1,110.2,102z M99.8,114.7c-5,0-9-4-9-9s4-9,9-9s9,4,9,9S104.8,114.7,99.8,114.7z"/>
	<path class="st1" d="M99.8,109.3c2,0,3.6-1.6,3.6-3.6s-1.6-3.6-3.6-3.6s-3.6,1.6-3.6,3.6S97.8,109.3,99.8,109.3z"/>
	<path class="st4" d="M105.5,105.7c0-3.1-2.5-5.6-5.6-5.6s-5.6,2.5-5.6,5.6s2.5,5.6,5.6,5.6S105.5,108.8,105.5,105.7z M96.2,105.7
		c0-2,1.6-3.6,3.6-3.6s3.6,1.6,3.6,3.6s-1.6,3.6-3.6,3.6S96.2,107.7,96.2,105.7z"/>
	<path class="st6" d="M189.9,102c-1.5-4.2-5.6-7.3-10.3-7.3c-4.8,0-8.8,3-10.3,7.3c-0.4,1.2-0.7,2.4-0.7,3.7s0.2,2.6,0.7,3.7
		c1.4,3.8,4.7,6.6,8.8,7.1c0.5,0.1,1,0.1,1.5,0.1s1,0,1.5-0.1c4.1-0.6,7.5-3.4,8.8-7.1c0.4-1.2,0.7-2.4,0.7-3.7
		S190.3,103.1,189.9,102z M170.5,105.7c0-5,4-9,9-9s9,4,9,9s-4,9-9,9S170.5,110.7,170.5,105.7z"/>
	<path class="st1" d="M175.9,105.7c0,2,1.6,3.6,3.6,3.6s3.6-1.6,3.6-3.6s-1.6-3.6-3.6-3.6S175.9,103.7,175.9,105.7z"/>
	<path class="st6" d="M173.9,105.7c0,3.1,2.5,5.6,5.6,5.6s5.6-2.5,5.6-5.6s-2.5-5.6-5.6-5.6S173.9,102.6,173.9,105.7z M183.1,105.7
		c0,2-1.6,3.6-3.6,3.6s-3.6-1.6-3.6-3.6s1.6-3.6,3.6-3.6S183.1,103.7,183.1,105.7z"/>
	<path class="st7" d="M270.7,102c-1.4-3.8-4.7-6.6-8.8-7.1c-0.5-0.1-1-0.1-1.5-0.1s-1,0-1.5,0.1c-4.1,0.6-7.5,3.4-8.8,7.1
		c-0.4,1.2-0.7,2.4-0.7,3.7s0.2,2.6,0.7,3.7c1.5,4.2,5.6,7.3,10.3,7.3c4.8,0,8.8-3,10.3-7.3c0.4-1.2,0.7-2.4,0.7-3.7
		S271.2,103.1,270.7,102z M260.4,114.7c-5,0-9-4-9-9s4-9,9-9s9,4,9,9S265.4,114.7,260.4,114.7z"/>
	<path class="st1" d="M260.4,109.3c2,0,3.6-1.6,3.6-3.6s-1.6-3.6-3.6-3.6s-3.6,1.6-3.6,3.6S258.4,109.3,260.4,109.3z"/>
	<path class="st7" d="M266,105.7c0-3.1-2.5-5.6-5.6-5.6s-5.6,2.5-5.6,5.6s2.5,5.6,5.6,5.6S266,108.8,266,105.7z M256.8,105.7
		c0-2,1.6-3.6,3.6-3.6s3.6,1.6,3.6,3.6s-1.6,3.6-3.6,3.6S256.8,107.7,256.8,105.7z"/>
	<path class="st8" d="M350.8,102c-1.5-4.2-5.6-7.3-10.3-7.3s-8.8,3-10.3,7.3c-0.4,1.2-0.7,2.4-0.7,3.7s0.2,2.6,0.7,3.7
		c1.4,3.8,4.7,6.6,8.8,7.1c0.5,0.1,1,0.1,1.5,0.1s1,0,1.5-0.1c4.1-0.6,7.5-3.4,8.8-7.1c0.4-1.2,0.7-2.4,0.7-3.7
		S351.3,103.1,350.8,102z M331.5,105.7c0-5,4-9,9-9s9,4,9,9s-4,9-9,9S331.5,110.7,331.5,105.7z"/>
	<path class="st1" d="M336.9,105.7c0,2,1.6,3.6,3.6,3.6s3.6-1.6,3.6-3.6s-1.6-3.6-3.6-3.6S336.9,103.7,336.9,105.7z"/>
	<path class="st8" d="M334.9,105.7c0,3.1,2.5,5.6,5.6,5.6s5.6-2.5,5.6-5.6s-2.5-5.6-5.6-5.6S334.9,102.6,334.9,105.7z M340.5,102.1
		c2,0,3.6,1.6,3.6,3.6s-1.6,3.6-3.6,3.6s-3.6-1.6-3.6-3.6S338.5,102.1,340.5,102.1z"/>
	<path class="st8" d="M430.6,102c-1.4-3.8-4.7-6.6-8.8-7.1c-0.5-0.1-1-0.1-1.5-0.1s-1,0-1.5,0.1c-4.1,0.6-7.5,3.4-8.8,7.1
		c-0.4,1.2-0.7,2.4-0.7,3.7s0.2,2.6,0.7,3.7c1.5,4.2,5.6,7.3,10.3,7.3c4.8,0,8.8-3,10.3-7.3c0.4-1.2,0.7-2.4,0.7-3.7
		S431,103.1,430.6,102z M411.2,105.7c0-5,4-9,9-9s9,4,9,9s-4,9-9,9S411.2,110.7,411.2,105.7z"/>
	<path class="st1" d="M423.8,105.7c0-2-1.6-3.6-3.6-3.6s-3.6,1.6-3.6,3.6s1.6,3.6,3.6,3.6S423.8,107.7,423.8,105.7z"/>
	<path class="st8" d="M425.8,105.7c0-3.1-2.5-5.6-5.6-5.6s-5.6,2.5-5.6,5.6s2.5,5.6,5.6,5.6S425.8,108.8,425.8,105.7z M416.6,105.7
		c0-2,1.6-3.6,3.6-3.6s3.6,1.6,3.6,3.6s-1.6,3.6-3.6,3.6S416.6,107.7,416.6,105.7z"/>
	<path class="st10" d="M510.9,102c-1.5-4.2-5.6-7.3-10.3-7.3s-8.8,3-10.3,7.3c-0.4,1.2-0.7,2.4-0.7,3.7s0.2,2.6,0.7,3.7
		c1.4,3.8,4.7,6.6,8.8,7.1c0.5,0.1,1,0.1,1.5,0.1s1,0,1.5-0.1c4.1-0.6,7.5-3.4,8.8-7.1c0.4-1.2,0.7-2.4,0.7-3.7
		S511.3,103.1,510.9,102z M491.5,105.7c0-5,4-9,9-9s9,4,9,9s-4,9-9,9S491.5,110.7,491.5,105.7z"/>
	<path class="st1" d="M496.9,105.7c0,2,1.6,3.6,3.6,3.6s3.6-1.6,3.6-3.6s-1.6-3.6-3.6-3.6S496.9,103.7,496.9,105.7z"/>
	<path class="st10" d="M494.9,105.7c0,3.1,2.5,5.6,5.6,5.6s5.6-2.5,5.6-5.6s-2.5-5.6-5.6-5.6S494.9,102.6,494.9,105.7z M504.1,105.7
		c0,2-1.6,3.6-3.6,3.6s-3.6-1.6-3.6-3.6s1.6-3.6,3.6-3.6S504.1,103.7,504.1,105.7z"/>
	<path class="st11" d="M656.5,105.7l-3.8-3.7h-63.2c0.4,1.2,0.7,2.4,0.7,3.7s-0.2,2.6-0.7,3.7h63.2L656.5,105.7z"/>
	<path class="st11" d="M589.5,102c-1.4-3.8-4.7-6.6-8.8-7.1c-0.5-0.1-1-0.1-1.5-0.1s-1,0-1.5,0.1c-4.1,0.6-7.5,3.4-8.8,7.1
		c-0.4,1.2-0.7,2.4-0.7,3.7s0.2,2.6,0.7,3.7c1.5,4.2,5.6,7.3,10.3,7.3s8.8-3,10.3-7.3c0.4-1.2,0.7-2.4,0.7-3.7
		S589.9,103.1,589.5,102z M579.2,114.7c-5,0-9-4-9-9s4-9,9-9s9,4,9,9S584.1,114.7,579.2,114.7z"/>
	<path class="st1" d="M579.2,109.3c2,0,3.6-1.6,3.6-3.6s-1.6-3.6-3.6-3.6s-3.6,1.6-3.6,3.6S577.2,109.3,579.2,109.3z"/>
	<path class="st11" d="M584.8,105.7c0-3.1-2.5-5.6-5.6-5.6s-5.6,2.5-5.6,5.6s2.5,5.6,5.6,5.6S584.8,108.8,584.8,105.7z M575.5,105.7
		c0-2,1.6-3.6,3.6-3.6s3.6,1.6,3.6,3.6s-1.6,3.6-3.6,3.6S575.5,107.7,575.5,105.7z"/>
</g>
</svg>
