<?xml version="1.0" encoding="utf-8"?>
<!-- Generator: Adobe Illustrator 21.1.0, SVG Export Plug-In . SVG Version: 6.00 Build 0)  -->
<svg version="1.1" id="Layer_1" xmlns="http://www.w3.org/2000/svg" xmlns:xlink="http://www.w3.org/1999/xlink" x="0px" y="0px"
	 viewBox="0 0 329.4 329.4" style="enable-background:new 0 0 329.4 329.4;" xml:space="preserve">
<style type="text/css">
	.st0{fill:#386BB4;}
</style>
<g>
	<g>
		<path class="st0" d="M247.8,191.1c0,0,52.3-102.3-102.3,1.9c0,0,83.3-101.2,140.8-86.6C330.4,117.8,247.8,191.1,247.8,191.1z"/>
		<path class="st0" d="M299.8,134.5c-46.1,101.3-158.1,128.9-158.1,128.9v50.5C141.7,314.1,271.7,246.2,299.8,134.5z"/>
		<ellipse class="st0" cx="93.2" cy="303.4" rx="23.6" ry="20.9"/>
	</g>
</g>
<g>
	<g>
		<g>
			<path class="st0" d="M81.6,138.2c0,0-52.3,102.3,102.3-1.9c0,0-83.3,101.2-140.8,86.6C-1,211.6,81.6,138.2,81.6,138.2z"/>
		</g>
		<g>
			<path class="st0" d="M29.6,194.9C75.7,93.5,187.7,65.9,187.7,65.9V15.3C187.7,15.3,57.5,83.2,29.6,194.9z"/>
		</g>
		<g>
			<ellipse class="st0" cx="236.1" cy="26" rx="23.6" ry="20.9"/>
		</g>
	</g>
</g>
</svg>
