<?xml version="1.0" encoding="utf-8"?>
<!-- Generator: Adobe Illustrator 21.1.0, SVG Export Plug-In . SVG Version: 6.00 Build 0)  -->
<svg version="1.1" id="Layer_1" xmlns="http://www.w3.org/2000/svg" xmlns:xlink="http://www.w3.org/1999/xlink" x="0px" y="0px"
	 viewBox="0 0 376.7 690" style="enable-background:new 0 0 376.7 690;" xml:space="preserve">
<style type="text/css">
	.st0{fill:none;}
	.st1{fill:#FFFFFF;}
	.st2{font-family:'OpenSans-Regular';}
	.st3{font-size:8px;}
	.st4{fill:#00E5C6;}
	.st5{font-size:12px;}
	.st6{fill:#00CBAF;}
	.st7{fill:#009A84;}
	.st8{fill:#02529E;}
	.st9{fill:#0A6CCD;}
	.st10{fill:#3877BC;}
	.st11{fill:#4893E7;}
	.st12{fill:#5BE9D4;}
</style>
<g>
	<g>
		<rect x="7.7" y="181.6" class="st0" width="113.5" height="60.5"/>
		<text transform="matrix(1 0 0 1 33.0778 187.678)" class="st1 st2 st3">Pre sale and Token Sale</text>
	</g>
	<g>
		<rect x="7.7" y="497.5" class="st0" width="113.5" height="60.5"/>
		<text transform="matrix(1 0 0 1 92.082 503.6399)" class="st1 st2 st3">WeChat</text>
		<text transform="matrix(1 0 0 1 97.582 513.2399)" class="st1 st2 st3">Steem</text>
	</g>
	<g>
		<rect x="7.7" y="337.3" class="st0" width="113.5" height="60.5"/>
		<text transform="matrix(1 0 0 1 50.3752 343.4325)" class="st1 st2 st3">Public tipping page</text>
		<text transform="matrix(1 0 0 1 83.4752 353.0325)" class="st1 st2 st3">Instagram</text>
	</g>
	<rect x="118.4" y="93" class="st0" width="50.7" height="25"/>
	<text transform="matrix(1 0 0 1 135.6452 102.1649)" class="st4 st2 st5">Q4</text>
	<text transform="matrix(1 0 0 1 130.0452 116.5649)" class="st4 st2 st5">2017</text>
	<rect x="206.4" y="172.7" class="st0" width="50.7" height="25"/>
	<text transform="matrix(1 0 0 1 223.6611 181.8412)" class="st6 st2 st5">Q1</text>
	<text transform="matrix(1 0 0 1 218.061 196.2411)" class="st6 st2 st5">2018</text>
	<rect x="118.4" y="252.1" class="st0" width="50.7" height="25"/>
	<text transform="matrix(1 0 0 1 135.6455 261.2401)" class="st7 st2 st5">Q2</text>
	<text transform="matrix(1 0 0 1 130.0455 275.6401)" class="st7 st2 st5">2018</text>
	<rect x="206.4" y="333.7" class="st0" width="50.7" height="25"/>
	<text transform="matrix(1 0 0 1 223.6611 342.8124)" class="st8 st2 st5">Q3</text>
	<text transform="matrix(1 0 0 1 218.061 357.2124)" class="st8 st2 st5">2018</text>
	<rect x="118.4" y="407.8" class="st0" width="50.7" height="25"/>
	<text transform="matrix(1 0 0 1 135.6457 416.9071)" class="st9 st2 st5">Q4</text>
	<text transform="matrix(1 0 0 1 130.0457 431.3071)" class="st9 st2 st5">2018</text>
	<rect x="206.4" y="493.7" class="st0" width="50.7" height="25"/>
	<text transform="matrix(1 0 0 1 223.6613 502.8407)" class="st10 st2 st5">Q1</text>
	<text transform="matrix(1 0 0 1 218.0612 517.2407)" class="st10 st2 st5">2019</text>
	<rect x="118.4" y="570.8" class="st0" width="50.7" height="25"/>
	<text transform="matrix(1 0 0 1 135.6455 580.0027)" class="st11 st2 st5">Q2</text>
	<text transform="matrix(1 0 0 1 130.0455 594.4027)" class="st11 st2 st5">2019</text>
	<g>
		<path class="st12" d="M191.5,95.2V27.8l-3.7,3.8l-3.7-3.8v67.4c1.2-0.4,2.4-0.7,3.7-0.7S190.4,94.8,191.5,95.2z"/>
		<path class="st4" d="M191.5,174.9v-59c-1.2,0.4-2.4,0.7-3.7,0.7s-2.6-0.2-3.7-0.7v59c1.2-0.4,2.4-0.7,3.7-0.7
			S190.4,174.4,191.5,174.9z"/>
		<path class="st6" d="M191.5,255.8v-60.2c-1.2,0.4-2.4,0.7-3.7,0.7s-2.6-0.2-3.7-0.7v60.2c1.2-0.4,2.4-0.7,3.7-0.7
			S190.4,255.3,191.5,255.8z"/>
		<path class="st7" d="M191.5,335.8v-59.4c-1.2,0.4-2.4,0.7-3.7,0.7s-2.6-0.2-3.7-0.7v59.4c1.2-0.4,2.4-0.7,3.7-0.7
			S190.4,335.4,191.5,335.8z"/>
		<path class="st8" d="M191.5,415.6v-59.1c-1.2,0.4-2.4,0.7-3.7,0.7s-2.6-0.2-3.7-0.7v59.1c1.2-0.4,2.4-0.7,3.7-0.7
			S190.4,415.1,191.5,415.6z"/>
		<path class="st9" d="M191.5,495.9v-59.6c-1.2,0.4-2.4,0.7-3.7,0.7s-2.6-0.2-3.7-0.7v59.6c1.2-0.4,2.4-0.7,3.7-0.7
			S190.4,495.4,191.5,495.9z"/>
		<path class="st10" d="M191.5,574.5v-58c-1.2,0.4-2.4,0.7-3.7,0.7s-2.6-0.2-3.7-0.7v58c1.2-0.4,2.4-0.7,3.7-0.7
			S190.4,574.1,191.5,574.5z"/>
		<path class="st4" d="M198.7,107h43.2c0.8,0,1.5-0.7,1.5-1.5s-0.7-1.5-1.5-1.5h-43.2c0.1,0.5,0.1,1,0.1,1.5S198.7,106.5,198.7,107z
			"/>
		<path class="st7" d="M198.7,267.6h43.2c0.8,0,1.5-0.7,1.5-1.5s-0.7-1.5-1.5-1.5h-43.2c0.1,0.5,0.1,1,0.1,1.5
			S198.7,267.1,198.7,267.6z"/>
		<path class="st8" d="M198.7,427.4h43.2c0.8,0,1.5-0.7,1.5-1.5s-0.7-1.5-1.5-1.5h-43.2c0.1,0.5,0.1,1,0.1,1.5
			S198.7,426.9,198.7,427.4z"/>
		<path class="st11" d="M198.7,586.4h43.2c0.8,0,1.5-0.7,1.5-1.5s-0.7-1.5-1.5-1.5h-43.2c0.1,0.5,0.1,1,0.1,1.5
			S198.7,585.9,198.7,586.4z"/>
		<path class="st6" d="M176.9,183.7H133c-0.8,0-1.5,0.7-1.5,1.5s0.7,1.5,1.5,1.5h43.9c-0.1-0.5-0.1-1-0.1-1.5
			S176.8,184.2,176.9,183.7z"/>
		<path class="st8" d="M176.9,344.7H133c-0.8,0-1.5,0.7-1.5,1.5s0.7,1.5,1.5,1.5h43.9c-0.1-0.5-0.1-1-0.1-1.5
			S176.8,345.2,176.9,344.7z"/>
		<path class="st10" d="M176.9,504.7H133c-0.8,0-1.5,0.7-1.5,1.5s0.7,1.5,1.5,1.5h43.9c-0.1-0.5-0.1-1-0.1-1.5
			S176.8,505.2,176.9,504.7z"/>
		<path class="st4" d="M191.5,115.9c3.8-1.4,6.6-4.7,7.1-8.8c0.1-0.5,0.1-1,0.1-1.5s0-1-0.1-1.5c-0.6-4.1-3.4-7.5-7.1-8.8
			c-1.2-0.4-2.4-0.7-3.7-0.7s-2.6,0.2-3.7,0.7c-4.2,1.5-7.3,5.6-7.3,10.3s3,8.8,7.3,10.3c1.2,0.4,2.4,0.7,3.7,0.7
			S190.4,116.3,191.5,115.9z M178.8,105.5c0-5,4-9,9-9s9,4,9,9s-4,9-9,9S178.8,110.5,178.8,105.5z"/>
		<path class="st1" d="M184.1,105.5c0,2,1.6,3.6,3.6,3.6s3.6-1.6,3.6-3.6s-1.6-3.6-3.6-3.6S184.1,103.5,184.1,105.5z"/>
		<path class="st4" d="M187.8,111.2c3.1,0,5.6-2.5,5.6-5.6s-2.5-5.6-5.6-5.6s-5.6,2.5-5.6,5.6S184.7,111.2,187.8,111.2z
			 M187.8,101.9c2,0,3.6,1.6,3.6,3.6s-1.6,3.6-3.6,3.6s-3.6-1.6-3.6-3.6S185.8,101.9,187.8,101.9z"/>
		<path class="st6" d="M191.5,195.5c4.2-1.5,7.3-5.6,7.3-10.3c0-4.8-3-8.8-7.3-10.3c-1.2-0.4-2.4-0.7-3.7-0.7s-2.6,0.2-3.7,0.7
			c-3.8,1.4-6.6,4.7-7.1,8.8c-0.1,0.5-0.1,1-0.1,1.5s0,1,0.1,1.5c0.6,4.1,3.4,7.5,7.1,8.8c1.2,0.4,2.4,0.7,3.7,0.7
			S190.4,196,191.5,195.5z M187.8,176.2c5,0,9,4,9,9s-4,9-9,9s-9-4-9-9S182.8,176.2,187.8,176.2z"/>
		<path class="st1" d="M187.8,181.6c-2,0-3.6,1.6-3.6,3.6s1.6,3.6,3.6,3.6s3.6-1.6,3.6-3.6S189.8,181.6,187.8,181.6z"/>
		<path class="st6" d="M187.8,179.6c-3.1,0-5.6,2.5-5.6,5.6s2.5,5.6,5.6,5.6s5.6-2.5,5.6-5.6S190.9,179.6,187.8,179.6z M187.8,188.8
			c-2,0-3.6-1.6-3.6-3.6s1.6-3.6,3.6-3.6s3.6,1.6,3.6,3.6S189.8,188.8,187.8,188.8z"/>
		<path class="st7" d="M191.5,276.4c3.8-1.4,6.6-4.7,7.1-8.8c0.1-0.5,0.1-1,0.1-1.5s0-1-0.1-1.5c-0.6-4.1-3.4-7.5-7.1-8.8
			c-1.2-0.4-2.4-0.7-3.7-0.7s-2.6,0.2-3.7,0.7c-4.2,1.5-7.3,5.6-7.3,10.3s3,8.8,7.3,10.3c1.2,0.4,2.4,0.7,3.7,0.7
			S190.4,276.9,191.5,276.4z M178.8,266.1c0-5,4-9,9-9s9,4,9,9s-4,9-9,9S178.8,271.1,178.8,266.1z"/>
		<path class="st1" d="M184.1,266.1c0,2,1.6,3.6,3.6,3.6s3.6-1.6,3.6-3.6s-1.6-3.6-3.6-3.6S184.1,264.1,184.1,266.1z"/>
		<path class="st7" d="M187.8,271.7c3.1,0,5.6-2.5,5.6-5.6s-2.5-5.6-5.6-5.6s-5.6,2.5-5.6,5.6S184.7,271.7,187.8,271.7z
			 M187.8,262.5c2,0,3.6,1.6,3.6,3.6s-1.6,3.6-3.6,3.6s-3.6-1.6-3.6-3.6S185.8,262.5,187.8,262.5z"/>
		<path class="st8" d="M191.5,356.5c4.2-1.5,7.3-5.6,7.3-10.3s-3-8.8-7.3-10.3c-1.2-0.4-2.4-0.7-3.7-0.7s-2.6,0.2-3.7,0.7
			c-3.8,1.4-6.6,4.7-7.1,8.8c-0.1,0.5-0.1,1-0.1,1.5s0,1,0.1,1.5c0.6,4.1,3.4,7.5,7.1,8.8c1.2,0.4,2.4,0.7,3.7,0.7
			S190.4,356.9,191.5,356.5z M187.8,337.2c5,0,9,4,9,9s-4,9-9,9s-9-4-9-9S182.8,337.2,187.8,337.2z"/>
		<path class="st1" d="M187.8,342.5c-2,0-3.6,1.6-3.6,3.6s1.6,3.6,3.6,3.6s3.6-1.6,3.6-3.6S189.8,342.5,187.8,342.5z"/>
		<path class="st8" d="M187.8,340.5c-3.1,0-5.6,2.5-5.6,5.6s2.5,5.6,5.6,5.6s5.6-2.5,5.6-5.6S190.9,340.5,187.8,340.5z M191.4,346.2
			c0,2-1.6,3.6-3.6,3.6s-3.6-1.6-3.6-3.6s1.6-3.6,3.6-3.6S191.4,344.2,191.4,346.2z"/>
		<path class="st8" d="M191.5,436.2c3.8-1.4,6.6-4.7,7.1-8.8c0.1-0.5,0.1-1,0.1-1.5s0-1-0.1-1.5c-0.6-4.1-3.4-7.5-7.1-8.8
			c-1.2-0.4-2.4-0.7-3.7-0.7s-2.6,0.2-3.7,0.7c-4.2,1.5-7.3,5.6-7.3,10.3c0,4.8,3,8.8,7.3,10.3c1.2,0.4,2.4,0.7,3.7,0.7
			S190.4,436.7,191.5,436.2z M187.8,416.9c5,0,9,4,9,9s-4,9-9,9s-9-4-9-9S182.8,416.9,187.8,416.9z"/>
		<path class="st1" d="M187.8,429.5c2,0,3.6-1.6,3.6-3.6s-1.6-3.6-3.6-3.6s-3.6,1.6-3.6,3.6S185.8,429.5,187.8,429.5z"/>
		<path class="st8" d="M187.8,431.5c3.1,0,5.6-2.5,5.6-5.6s-2.5-5.6-5.6-5.6s-5.6,2.5-5.6,5.6C182.1,429,184.7,431.5,187.8,431.5z
			 M187.8,422.3c2,0,3.6,1.6,3.6,3.6s-1.6,3.6-3.6,3.6s-3.6-1.6-3.6-3.6S185.8,422.3,187.8,422.3z"/>
		<path class="st10" d="M191.5,516.5c4.2-1.5,7.3-5.6,7.3-10.3s-3-8.8-7.3-10.3c-1.2-0.4-2.4-0.7-3.7-0.7s-2.6,0.2-3.7,0.7
			c-3.8,1.4-6.6,4.7-7.1,8.8c-0.1,0.5-0.1,1-0.1,1.5s0,1,0.1,1.5c0.6,4.1,3.4,7.5,7.1,8.8c1.2,0.4,2.4,0.7,3.7,0.7
			S190.4,517,191.5,516.5z M187.8,497.2c5,0,9,4,9,9s-4,9-9,9s-9-4-9-9S182.8,497.2,187.8,497.2z"/>
		<path class="st1" d="M187.8,502.6c-2,0-3.6,1.6-3.6,3.6s1.6,3.6,3.6,3.6s3.6-1.6,3.6-3.6S189.8,502.6,187.8,502.6z"/>
		<path class="st10" d="M187.8,500.6c-3.1,0-5.6,2.5-5.6,5.6s2.5,5.6,5.6,5.6s5.6-2.5,5.6-5.6S190.9,500.6,187.8,500.6z
			 M187.8,509.8c-2,0-3.6-1.6-3.6-3.6s1.6-3.6,3.6-3.6s3.6,1.6,3.6,3.6S189.8,509.8,187.8,509.8z"/>
		<path class="st11" d="M187.8,662.2l3.7-3.8v-63.2c-1.2,0.4-2.4,0.7-3.7,0.7s-2.6-0.2-3.7-0.7v63.2L187.8,662.2z"/>
		<path class="st11" d="M191.5,595.2c3.8-1.4,6.6-4.7,7.1-8.8c0.1-0.5,0.1-1,0.1-1.5s0-1-0.1-1.5c-0.6-4.1-3.4-7.5-7.1-8.8
			c-1.2-0.4-2.4-0.7-3.7-0.7s-2.6,0.2-3.7,0.7c-4.2,1.5-7.3,5.6-7.3,10.3s3,8.8,7.3,10.3c1.2,0.4,2.4,0.7,3.7,0.7
			S190.4,595.6,191.5,595.2z M178.8,584.9c0-5,4-9,9-9s9,4,9,9s-4,9-9,9S178.8,589.8,178.8,584.9z"/>
		<path class="st1" d="M184.1,584.9c0,2,1.6,3.6,3.6,3.6s3.6-1.6,3.6-3.6s-1.6-3.6-3.6-3.6S184.1,582.9,184.1,584.9z"/>
		<path class="st11" d="M187.8,590.5c3.1,0,5.6-2.5,5.6-5.6s-2.5-5.6-5.6-5.6s-5.6,2.5-5.6,5.6S184.7,590.5,187.8,590.5z
			 M187.8,581.2c2,0,3.6,1.6,3.6,3.6s-1.6,3.6-3.6,3.6s-3.6-1.6-3.6-3.6S185.8,581.2,187.8,581.2z"/>
	</g>
	<g>
		<rect x="254.6" y="103.8" class="st0" width="113.5" height="22"/>
		<text transform="matrix(1 0 0 1 254.5983 109.9368)" class="st1 st2 st3">Platform Completed With </text>
		<text transform="matrix(1 0 0 1 254.5983 119.5368)" class="st1 st2 st3">Twitter, Facebook and Email</text>
	</g>
	<g>
		<rect x="254.6" y="263.4" class="st0" width="113.5" height="14.2"/>
		<text transform="matrix(1 0 0 1 254.5981 269.5615)" class="st1 st2 st3">Platform Launch</text>
	</g>
	<g>
		<rect x="254.6" y="412.3" class="st0" width="113.5" height="30.3"/>
		<text transform="matrix(1 0 0 1 254.5981 418.3779)" class="st1 st2 st3">Debit Card</text>
		<text transform="matrix(1 0 0 1 254.5981 427.9779)" class="st1 st2 st3">Android App</text>
		<text transform="matrix(1 0 0 1 254.5981 437.5779)" class="st1 st2 st3">iOS App</text>
	</g>
	<g>
		<rect x="254.6" y="571.2" class="st0" width="113.5" height="30.3"/>
		<text transform="matrix(1 0 0 1 254.5981 577.3368)" class="st1 st2 st3">LinkedIn</text>
		<text transform="matrix(1 0 0 1 254.5981 586.9368)" class="st1 st2 st3">Google+</text>
		<text transform="matrix(1 0 0 1 254.5981 596.5368)" class="st1 st2 st3">Ecommerce Integration</text>
	</g>
</g>
</svg>
